<svg xmlns="http://www.w3.org/2000/svg" viewBox="0 0 1000 600">
  <!-- Title -->
  <text x="500" y="30" font-family="Arial" font-size="22" font-weight="bold" fill="#232F3E" text-anchor="middle">AWS Transform Detailed Architecture</text>
  
  <!-- Discovery Layer -->
  <rect x="50" y="70" width="900" height="120" fill="#E8F4F8" stroke="#0073BB" stroke-width="2" rx="8"/>
  <text x="500" y="95" font-family="Arial" font-size="16" font-weight="bold" fill="#0073BB" text-anchor="middle">Discovery Layer</text>
  
  <rect x="80" y="110" width="180" height="60" fill="white" stroke="#0073BB" stroke-width="1" rx="5"/>
  <text x="170" y="135" font-family="Arial" font-size="12" fill="#232F3E" text-anchor="middle" font-weight="bold">Application Discovery</text>
  <text x="170" y="155" font-family="Arial" font-size="10" fill="#666" text-anchor="middle">Service</text>
  
  <rect x="290" y="110" width="180" height="60" fill="white" stroke="#0073BB" stroke-width="1" rx="5"/>
  <text x="380" y="135" font-family="Arial" font-size="12" fill="#232F3E" text-anchor="middle" font-weight="bold">vCenter</text>
  <text x="380" y="155" font-family="Arial" font-size="10" fill="#666" text-anchor="middle">Integration</text>
  
  <rect x="500" y="110" width="180" height="60" fill="white" stroke="#0073BB" stroke-width="1" rx="5"/>
  <text x="590" y="135" font-family="Arial" font-size="12" fill="#232F3E" text-anchor="middle" font-weight="bold">Agent-based</text>
  <text x="590" y="155" font-family="Arial" font-size="10" fill="#666" text-anchor="middle">Discovery</text>
  
  <rect x="710" y="110" width="180" height="60" fill="white" stroke="#0073BB" stroke-width="1" rx="5"/>
  <text x="800" y="135" font-family="Arial" font-size="12" fill="#232F3E" text-anchor="middle" font-weight="bold">Data Collection</text>
  <text x="800" y="155" font-family="Arial" font-size="10" fill="#666" text-anchor="middle">S3 Storage</text>
  
  <!-- Assessment Layer -->
  <rect x="50" y="220" width="900" height="120" fill="#FFF5E6" stroke="#FF9900" stroke-width="2" rx="8"/>
  <text x="500" y="245" font-family="Arial" font-size="16" font-weight="bold" fill="#FF9900" text-anchor="middle">Assessment & Analysis Layer</text>
  
  <rect x="80" y="260" width="200" height="60" fill="#FF9900" stroke="#FF6600" stroke-width="1" rx="5"/>
  <text x="180" y="285" font-family="Arial" font-size="12" fill="white" text-anchor="middle" font-weight="bold">AI Analysis Engine</text>
  <text x="180" y="305" font-family="Arial" font-size="10" fill="white" text-anchor="middle">Bedrock Powered</text>
  
  <rect x="310" y="260" width="200" height="60" fill="#FF9900" stroke="#FF6600" stroke-width="1" rx="5"/>
  <text x="410" y="285" font-family="Arial" font-size="12" fill="white" text-anchor="middle" font-weight="bold">Dependency Mapping</text>
  <text x="410" y="305" font-family="Arial" font-size="10" fill="white" text-anchor="middle">Graph Analysis</text>
  
  <rect x="540" y="260" width="200" height="60" fill="#FF9900" stroke="#FF6600" stroke-width="1" rx="5"/>
  <text x="640" y="285" font-family="Arial" font-size="12" fill="white" text-anchor="middle" font-weight="bold">Cost Modeling</text>
  <text x="640" y="305" font-family="Arial" font-size="10" fill="white" text-anchor="middle">Pricing Calculator</text>
  
  <rect x="770" y="260" width="160" height="60" fill="#FF9900" stroke="#FF6600" stroke-width="1" rx="5"/>
  <text x="850" y="285" font-family="Arial" font-size="12" fill="white" text-anchor="middle" font-weight="bold">Readiness Score</text>
  <text x="850" y="305" font-family="Arial" font-size="10" fill="white" text-anchor="middle">ML Models</text>
  
  <!-- Planning Layer -->
  <rect x="50" y="370" width="900" height="100" fill="#E8F8E8" stroke="#2E7D32" stroke-width="2" rx="8"/>
  <text x="500" y="395" font-family="Arial" font-size="16" font-weight="bold" fill="#2E7D32" text-anchor="middle">Planning & Orchestration Layer</text>
  
  <rect x="100" y="410" width="180" height="45" fill="#4CAF50" stroke="#2E7D32" stroke-width="1" rx="5"/>
  <text x="190" y="438" font-family="Arial" font-size="12" fill="white" text-anchor="middle" font-weight="bold">Wave Planning</text>
  
  <rect x="310" y="410" width="180" height="45" fill="#4CAF50" stroke="#2E7D32" stroke-width="1" rx="5"/>
  <text x="400" y="438" font-family="Arial" font-size="12" fill="white" text-anchor="middle" font-weight="bold">Resource Mapping</text>
  
  <rect x="520" y="410" width="180" height="45" fill="#4CAF50" stroke="#2E7D32" stroke-width="1" rx="5"/>
  <text x="610" y="438" font-family="Arial" font-size="12" fill="white" text-anchor="middle" font-weight="bold">Timeline Generation</text>
  
  <rect x="730" y="410" width="180" height="45" fill="#4CAF50" stroke="#2E7D32" stroke-width="1" rx="5"/>
  <text x="820" y="438" font-family="Arial" font-size="12" fill="white" text-anchor="middle" font-weight="bold">Risk Assessment</text>
  
  <!-- Execution Layer -->
  <rect x="50" y="500" width="900" height="80" fill="#F3E5F5" stroke="#7B1FA2" stroke-width="2" rx="8"/>
  <text x="500" y="525" font-family="Arial" font-size="16" font-weight="bold" fill="#7B1FA2" text-anchor="middle">Execution Layer</text>
  
  <rect x="120" y="540" width="160" height="30" fill="#9C27B0" stroke="#7B1FA2" stroke-width="1" rx="5"/>
  <text x="200" y="560" font-family="Arial" font-size="11" fill="white" text-anchor="middle" font-weight="bold">MGN Replication</text>
  
  <rect x="310" y="540" width="160" height="30" fill="#9C27B0" stroke="#7B1FA2" stroke-width="1" rx="5"/>
  <text x="390" y="560" font-family="Arial" font-size="11" fill="white" text-anchor="middle" font-weight="bold">Testing & Validation</text>
  
  <rect x="500" y="540" width="160" height="30" fill="#9C27B0" stroke="#7B1FA2" stroke-width="1" rx="5"/>
  <text x="580" y="560" font-family="Arial" font-size="11" fill="white" text-anchor="middle" font-weight="bold">Cutover Automation</text>
  
  <rect x="690" y="540" width="160" height="30" fill="#9C27B0" stroke="#7B1FA2" stroke-width="1" rx="5"/>
  <text x="770" y="560" font-family="Arial" font-size="11" fill="white" text-anchor="middle" font-weight="bold">Rollback Support</text>
  
  <!-- Arrows between layers -->
  <defs>
    <marker id="arrow" markerWidth="10" markerHeight="10" refX="9" refY="3" orient="auto">
      <polygon points="0 0, 10 3, 0 6" fill="#232F3E" />
    </marker>
  </defs>
  
  <line x1="500" y1="190" x2="500" y2="220" stroke="#232F3E" stroke-width="2" marker-end="url(#arrow)"/>
  <line x1="500" y1="340" x2="500" y2="370" stroke="#232F3E" stroke-width="2" marker-end="url(#arrow)"/>
  <line x1="500" y1="470" x2="500" y2="500" stroke="#232F3E" stroke-width="2" marker-end="url(#arrow)"/>
</svg>
